# xmcd
#
# Track frame offsets:
# 150
# 7001
# 18188
# 26230
# 45957
# 67976
# 87205
# 113342
# 126905
# 149628
# 167801
# 171255
# 192667
# 206520
# 228079
# 247428
# 263375
# 274408
# 295150
# 307050
# 318199
#
# Disc length: 4520 seconds
#
# Revision: 0
# Processed by: cddbd v1.5.2PL0 Copyright (c) Steve Scherf et al.
# Submitted via: Audion 3.0.2 (http://www.panic.com/audion/)
#
DISCID=2e11a615
DTITLE=Assembled by Stella's Little Bro - Unknown
DYEAR=1900
DGENRE=
TTITLE0=g
TTITLE1=er
TTITLE2=f
TTITLE3=e
TTITLE4=d
TTITLE5=a
TTITLE6=b
TTITLE7=c
TTITLE8=d
TTITLE9=e
TTITLE10=f
TTITLE11=g
TTITLE12=h
TTITLE13=i
TTITLE14=j
TTITLE15=k
TTITLE16=l
TTITLE17=m
TTITLE18=n
TTITLE19=o
TTITLE20=p
EXTD=
EXTT0=
EXTT1=
EXTT2=
EXTT3=
EXTT4=
EXTT5=
EXTT6=
EXTT7=
EXTT8=
EXTT9=
EXTT10=
EXTT11=
EXTT12=
EXTT13=
EXTT14=
EXTT15=
EXTT16=
EXTT17=
EXTT18=
EXTT19=
EXTT20=
PLAYORDER=
